<svg width="146" height="24" viewBox="0 0 146 24" fill="none" xmlns="http://www.w3.org/2000/svg">
<g clip-path="url(#clip0_2_2)">
<path d="M33.014 16.809V8.553C33.014 6.976 33.38 5.733 34.112 4.823C34.845 3.913 35.762 3.458 36.862 3.458C39.02 3.458 40.099 5.035 40.099 8.189V16.809H43.881V7.229C43.881 4.814 43.381 3.009 42.378 1.812C41.376 0.614998 39.945 0.0169981 38.084 0.0169981C36.862 0.0169981 35.744 0.250998 34.732 0.719998C33.7257 1.18339 32.8471 1.88453 32.172 2.763H32.106C31.126 0.931998 29.486 0.0169981 27.184 0.0169981C26.215 0.0169981 25.282 0.233998 24.385 0.669998C23.4733 1.11728 22.6703 1.7582 22.032 2.548H21.982V0.264998H18.2V16.792H21.982V8.553C21.982 6.976 22.354 5.733 23.097 4.823C23.84 3.913 24.79 3.458 25.946 3.458C28.136 3.458 29.232 5.035 29.232 8.189V16.809H33.014ZM54.115 17.057C56.361 17.057 58.112 16.23 59.367 14.575H59.417V16.792H63.033V0.264998H59.251V2.25H59.185C57.93 0.760998 56.23 0.0169981 54.082 0.0169981C53.0202 0.00945775 51.9682 0.219898 50.991 0.635295C50.0139 1.05069 49.1323 1.66221 48.401 2.432C47.696 3.182 47.141 4.092 46.733 5.162C46.3204 6.26157 46.1133 7.42759 46.122 8.602C46.122 9.86 46.325 11.018 46.732 12.077C47.14 13.136 47.696 14.029 48.401 14.757C49.1181 15.4934 49.9817 16.0712 50.936 16.453C51.9463 16.8604 53.0257 17.0657 54.115 17.057ZM54.71 13.616C53.311 13.616 52.172 13.15 51.291 12.218C50.411 11.286 49.97 10.086 49.97 8.619C49.97 7.064 50.424 5.815 51.332 4.872C52.241 3.929 53.372 3.458 54.726 3.458C56.069 3.458 57.184 3.951 58.071 4.938C58.957 5.926 59.401 7.153 59.401 8.619C59.401 10.086 58.946 11.286 58.038 12.218C57.129 13.15 56.02 13.616 54.71 13.616ZM81.822 16.809V7.064C81.822 4.671 81.286 2.898 80.212 1.745C79.14 0.592998 77.655 0.0169981 75.762 0.0169981C74.709 0.0112932 73.6669 0.231227 72.706 0.661998C71.7501 1.09089 70.9033 1.73012 70.229 2.532H70.179V0.263998H66.397V16.791H70.179V8.487C70.179 6.899 70.567 5.664 71.343 4.781C72.12 3.899 73.157 3.458 74.456 3.458C75.051 3.458 75.56 3.535 75.984 3.689C76.408 3.844 76.78 4.095 77.099 4.442C77.419 4.79 77.655 5.261 77.809 5.857C77.963 6.452 78.04 7.18 78.04 8.04V16.809H81.822ZM92.04 17.057C94.286 17.057 96.036 16.23 97.292 14.575H97.342V16.792H100.958V0.264998H97.176V2.25H97.11C95.855 0.760998 94.154 0.0169981 92.007 0.0169981C90.9451 0.00932063 89.8928 0.219694 88.9155 0.635095C87.9381 1.0505 87.0564 1.66208 86.325 2.432C85.621 3.182 85.065 4.092 84.657 5.162C84.2447 6.26164 84.038 7.42765 84.047 8.602C84.047 9.86 84.25 11.018 84.657 12.077C85.065 13.136 85.621 14.029 86.325 14.757C87.0424 15.4935 87.9063 16.0713 88.861 16.453C89.871 16.8603 90.951 17.0655 92.04 17.057ZM92.634 13.616C91.236 13.616 90.096 13.15 89.216 12.218C88.335 11.286 87.894 10.086 87.894 8.619C87.894 7.064 88.349 5.815 89.257 4.872C90.165 3.929 91.297 3.458 92.651 3.458C93.994 3.458 95.109 3.951 95.995 4.938C96.881 5.926 97.325 7.153 97.325 8.619C97.325 10.086 96.87 11.286 95.962 12.218C95.054 13.15 93.944 13.616 92.634 13.616ZM111.704 23.741C112.904 23.741 113.978 23.601 114.924 23.319C115.871 23.038 116.667 22.646 117.311 22.144C117.959 21.6382 118.503 21.012 118.913 20.3C119.342 19.5588 119.651 18.7546 119.829 17.917C120.017 17.057 120.11 16.114 120.11 15.088V0.264998H116.328V2.002H116.262C115.584 1.354 114.785 0.847474 113.909 0.511998C113.026 0.171032 112.088 -0.00259515 111.142 -1.89222e-06C109.634 -1.89222e-06 108.28 0.357998 107.08 1.075C105.88 1.792 104.946 2.788 104.28 4.062C103.614 5.335 103.281 6.767 103.281 8.355C103.281 9.965 103.631 11.393 104.33 12.64C105.029 13.886 105.99 14.843 107.212 15.51C108.434 16.177 109.81 16.511 111.341 16.511C113.388 16.511 115.057 15.838 116.345 14.493H116.411V16.246C116.411 17.416 115.981 18.386 115.123 19.158C114.263 19.93 113.053 20.316 111.489 20.316C110.421 20.316 109.483 20.184 108.673 19.919C107.864 19.654 106.931 19.241 105.874 18.679L104.982 22.02C105.907 22.572 106.948 22.996 108.104 23.294C109.26 23.592 110.46 23.741 111.704 23.741ZM111.836 13.021C110.471 13.021 109.345 12.587 108.459 11.721C107.572 10.856 107.129 9.695 107.129 8.239C107.129 6.839 107.564 5.697 108.434 4.814C109.304 3.932 110.438 3.491 111.836 3.491C113.168 3.491 114.278 3.926 115.164 4.798C116.05 5.669 116.494 6.8 116.494 8.189C116.494 9.59 116.061 10.745 115.197 11.655C114.333 12.565 113.212 13.021 111.836 13.021ZM130.922 17.057C132.464 17.057 133.821 16.776 134.993 16.213C136.166 15.651 137.126 14.89 137.875 13.93L135.233 11.664C134.198 12.965 132.827 13.616 131.12 13.616C129.91 13.616 128.883 13.279 128.04 12.606C127.198 11.934 126.656 11.013 126.413 9.844H138.437C138.503 9.447 138.536 8.944 138.536 8.338C138.536 6.739 138.211 5.311 137.561 4.053C136.931 2.81592 135.956 1.78761 134.754 1.092C133.532 0.374998 132.122 0.0169981 130.526 0.0169981C129.433 0.00880797 128.349 0.219618 127.338 0.636998C126.348 1.051 125.494 1.627 124.778 2.366C124.063 3.105 123.501 4.004 123.094 5.062C122.687 6.122 122.483 7.274 122.483 8.52C122.483 10.208 122.852 11.705 123.589 13.012C124.327 14.319 125.335 15.32 126.612 16.015C127.889 16.71 129.326 17.057 130.922 17.057ZM134.737 6.783H126.48C126.744 5.724 127.256 4.905 128.015 4.326C128.775 3.747 129.678 3.458 130.724 3.458C131.781 3.458 132.654 3.756 133.342 4.351C134.03 4.947 134.495 5.757 134.737 6.783Z" fill="#F3603C"/>
<path fill-rule="evenodd" clip-rule="evenodd" d="M-4.214 10.286C-2.676 10.286 -1.429 11.565 -1.429 13.143C-1.429 14.72 -2.676 16 -4.214 16C-5.753 16 -7 14.72 -7 13.143C-7 11.565 -5.753 10.286 -4.214 10.286ZM-4.214 0C-2.676 0 -1.43 1.28 -1.43 2.857C-1.43 4.435 -2.677 5.714 -4.215 5.714C-5.753 5.714 -7 4.435 -7 2.857C-7 1.28 -5.753 0 -4.214 0ZM5.814 0C7.353 0 8.6 1.28 8.6 2.857C8.6 4.435 7.353 5.714 5.814 5.714C4.276 5.714 3.029 4.435 3.029 2.857C3.029 1.28 4.276 0 5.814 0Z" fill="#F3603C"/>
<path opacity="0.5" d="M5.814 16.114C7.35267 16.114 8.6 14.8349 8.6 13.257C8.6 11.6791 7.35267 10.4 5.814 10.4C4.27533 10.4 3.028 11.6791 3.028 13.257C3.028 14.8349 4.27533 16.114 5.814 16.114Z" fill="#F3603C"/>
</g>
<defs>
<clipPath id="clip0_2_2">
<rect width="146" height="24" fill="white"/>
</clipPath>
</defs>
</svg>
